<svg width="112" height="102" viewBox="0 0 112 102" fill="none" xmlns="http://www.w3.org/2000/svg">
<g filter="url(#filter0_d_237_7)">
<path opacity="0.4" d="M16 20C16 13.3726 21.3726 8 28 8H42C48.6274 8 54 13.3726 54 20V27C54 33.6274 48.6274 39 42 39H28C21.3726 39 16 33.6274 16 27V20Z" fill="#336CED" style="fill:#336CED;fill:color(display-p3 0.2000 0.4235 0.9294);fill-opacity:1;"/>
<path d="M16 30C16 23.3726 21.3726 18 28 18H84C90.6274 18 96 23.3726 96 30V66C96 72.6274 90.6274 78 84 78H28C21.3726 78 16 72.6274 16 66V30Z" fill="#336CED" style="fill:#336CED;fill:color(display-p3 0.2000 0.4235 0.9294);fill-opacity:1;"/>
<rect x="35" y="48" width="42" height="6" rx="3" fill="white" style="fill:white;fill-opacity:1;"/>
</g>
<defs>
<filter id="filter0_d_237_7" x="0" y="0" width="112" height="102" filterUnits="userSpaceOnUse" color-interpolation-filters="sRGB">
<feFlood flood-opacity="0" result="BackgroundImageFix"/>
<feColorMatrix in="SourceAlpha" type="matrix" values="0 0 0 0 0 0 0 0 0 0 0 0 0 0 0 0 0 0 127 0" result="hardAlpha"/>
<feOffset dy="8"/>
<feGaussianBlur stdDeviation="8"/>
<feComposite in2="hardAlpha" operator="out"/>
<feColorMatrix type="matrix" values="0 0 0 0 0 0 0 0 0 0 0 0 0 0 0 0 0 0 0.1 0"/>
<feBlend mode="normal" in2="BackgroundImageFix" result="effect1_dropShadow_237_7"/>
<feBlend mode="normal" in="SourceGraphic" in2="effect1_dropShadow_237_7" result="shape"/>
</filter>
</defs>
</svg>
