<svg width="32" height="32" viewBox="0 0 32 32" fill="none" xmlns="http://www.w3.org/2000/svg">
<path d="M10.6667 9.33337V14.6667L2.66667 8.00004L10.6667 1.33337V6.66671H17.3333C20.1623 6.66671 22.8754 7.79051 24.8758 9.7909C26.8762 11.7913 28 14.5044 28 17.3334C28 20.1623 26.8762 22.8755 24.8758 24.8758C22.8754 26.8762 20.1623 28 17.3333 28H5.33333V25.3334H17.3333C19.4551 25.3334 21.4899 24.4905 22.9902 22.9902C24.4905 21.4899 25.3333 19.4551 25.3333 17.3334C25.3333 15.2116 24.4905 13.1768 22.9902 11.6765C21.4899 10.1762 19.4551 9.33337 17.3333 9.33337H10.6667Z" fill="#BABEC7" style="currentColor"/>
</svg>
