<svg width="32" height="32" viewBox="0 0 32 32" fill="none" xmlns="http://www.w3.org/2000/svg">
<path d="M23.8 15.5973L22.856 14.6546L9.656 27.8546H4V22.1973L19.0853 7.11198L26.628 14.6546C26.878 14.9047 27.0184 15.2438 27.0184 15.5973C27.0184 15.9509 26.878 16.2899 26.628 16.54L17.1987 25.968L15.3133 24.0826L23.8 15.5973ZM20.9707 12.7693L19.0853 10.884L6.66667 23.3013V25.188H8.552L20.9707 12.7693ZM24.7413 3.34131L28.5133 7.11198C28.7633 7.36201 28.9037 7.70109 28.9037 8.05464C28.9037 8.4082 28.7633 8.74727 28.5133 8.99731L26.6267 10.884L20.9707 5.22664L22.856 3.34131C23.106 3.09135 23.4451 2.95093 23.7987 2.95093C24.1522 2.95093 24.4913 3.09135 24.7413 3.34131Z" fill="black" style="currentColor"/>
</svg>
