<svg width="28" height="28" viewBox="0 0 28 28" fill="none" xmlns="http://www.w3.org/2000/svg">
<path d="M22.0413 19.656L27.752 25.3653L25.8653 27.252L20.156 21.5413C18.0316 23.2443 15.3893 24.1705 12.6666 24.1666C6.04263 24.1666 0.666626 18.7906 0.666626 12.1666C0.666626 5.54263 6.04263 0.166626 12.6666 0.166626C19.2906 0.166626 24.6666 5.54263 24.6666 12.1666C24.6705 14.8893 23.7443 17.5316 22.0413 19.656ZM19.3666 18.6666C21.0588 16.9265 22.0038 14.5939 22 12.1666C22 7.01063 17.8226 2.83329 12.6666 2.83329C7.51063 2.83329 3.33329 7.01063 3.33329 12.1666C3.33329 17.3226 7.51063 21.5 12.6666 21.5C15.0939 21.5038 17.4265 20.5588 19.1666 18.8666L19.3666 18.6666Z" fill="#BABEC7" style="fill:#BABEC7;fill:color(display-p3 0.7290 0.7457 0.7792);fill-opacity:1;"/>
</svg>
