<svg width="32" height="32" viewBox="0 0 32 32" fill="none" xmlns="http://www.w3.org/2000/svg">
<path d="M26.6667 29.3333H5.33333C4.97971 29.3333 4.64057 29.1928 4.39052 28.9428C4.14048 28.6927 4 28.3536 4 28V3.99996C4 3.64634 4.14048 3.3072 4.39052 3.05715C4.64057 2.8071 4.97971 2.66663 5.33333 2.66663H26.6667C27.0203 2.66663 27.3594 2.8071 27.6095 3.05715C27.8595 3.3072 28 3.64634 28 3.99996V28C28 28.3536 27.8595 28.6927 27.6095 28.9428C27.3594 29.1928 27.0203 29.3333 26.6667 29.3333ZM25.3333 26.6666V5.33329H6.66667V26.6666H25.3333ZM10.6667 9.33329H21.3333V12H10.6667V9.33329ZM10.6667 14.6666H21.3333V17.3333H10.6667V14.6666ZM10.6667 20H17.3333V22.6666H10.6667V20Z" fill="black" style="fill:black;fill-opacity:1;"/>
</svg>
