<svg width="32" height="32" viewBox="0 0 32 32" fill="none" xmlns="http://www.w3.org/2000/svg">
  <path
    d="M8 10.6667V9.33337C8 7.21164 8.84286 5.17681 10.3431 3.67652C11.8434 2.17623 13.8783 1.33337 16 1.33337C18.1217 1.33337 20.1566 2.17623 21.6569 3.67652C23.1571 5.17681 24 7.21164 24 9.33337V10.6667H26.6667C27.0203 10.6667 27.3594 10.8072 27.6095 11.0572C27.8595 11.3073 28 11.6464 28 12V28C28 28.3537 27.8595 28.6928 27.6095 28.9429C27.3594 29.1929 27.0203 29.3334 26.6667 29.3334H5.33333C4.97971 29.3334 4.64057 29.1929 4.39052 28.9429C4.14048 28.6928 4 28.3537 4 28V12C4 11.6464 4.14048 11.3073 4.39052 11.0572C4.64057 10.8072 4.97971 10.6667 5.33333 10.6667H8ZM25.3333 13.3334H6.66667V26.6667H25.3333V13.3334ZM14.6667 20.976C14.1583 20.6825 13.761 20.2295 13.5364 19.6871C13.3118 19.1448 13.2724 18.5435 13.4243 17.9765C13.5762 17.4095 13.911 16.9085 14.3767 16.5511C14.8424 16.1938 15.413 16.0001 16 16C16.587 16.0001 17.1576 16.1938 17.6233 16.5511C18.089 16.9085 18.4238 17.4095 18.5757 17.9765C18.7276 18.5435 18.6882 19.1448 18.4636 19.6871C18.239 20.2295 17.8417 20.6825 17.3333 20.976V24H14.6667V20.976ZM10.6667 10.6667H21.3333V9.33337C21.3333 7.91889 20.7714 6.56233 19.7712 5.56214C18.771 4.56194 17.4145 4.00004 16 4.00004C14.5855 4.00004 13.229 4.56194 12.2288 5.56214C11.2286 6.56233 10.6667 7.91889 10.6667 9.33337V10.6667Z"
    fill="currentColor" style="fill:black;fill-opacity:1;" />
</svg>