<svg width="32" height="32" viewBox="0 0 32 32" fill="none" xmlns="http://www.w3.org/2000/svg">
<path d="M20.324 6.01465L11.34 15L10.3973 17.8266L9.01066 19.216L12.7813 22.9866L14.168 21.6L16.9973 20.656L25.98 11.6733L20.324 6.01465ZM28.8093 10.7293C29.0593 10.9794 29.1997 11.3184 29.1997 11.672C29.1997 12.0255 29.0593 12.3646 28.8093 12.6146L18.4387 22.9853L15.6093 23.928L13.724 25.8146C13.474 26.0646 13.1349 26.205 12.7813 26.205C12.4278 26.205 12.0887 26.0646 11.8387 25.8146L6.18133 20.1573C5.93137 19.9073 5.79094 19.5682 5.79094 19.2146C5.79094 18.8611 5.93137 18.522 6.18133 18.272L8.06666 16.3866L9.00933 13.5573L19.3813 3.18665C19.6314 2.93669 19.9704 2.79626 20.324 2.79626C20.6775 2.79626 21.0166 2.93669 21.2667 3.18665L28.8093 10.7293ZM20.324 9.78665L22.2093 11.672L15.6093 18.272L13.724 16.3866L20.324 9.78665ZM5.71066 22.5146L9.48133 26.2853L7.59599 28.1706L1.93866 26.2853L5.71066 22.5146Z" fill="black" style="fill:black;fill-opacity:1;"/>
</svg>
