<svg width="32" height="32" viewBox="0 0 32 32" fill="none" xmlns="http://www.w3.org/2000/svg">
<path d="M24.0414 22.156L29.752 27.8653L27.8654 29.752L22.156 24.0413C20.0317 25.7443 17.3894 26.6705 14.6667 26.6666C8.04269 26.6666 2.66669 21.2906 2.66669 14.6666C2.66669 8.04263 8.04269 2.66663 14.6667 2.66663C21.2907 2.66663 26.6667 8.04263 26.6667 14.6666C26.6706 17.3893 25.7443 20.0316 24.0414 22.156ZM21.3667 21.1666C23.0588 19.4265 24.0038 17.0939 24 14.6666C24 9.51063 19.8227 5.33329 14.6667 5.33329C9.51069 5.33329 5.33335 9.51063 5.33335 14.6666C5.33335 19.8226 9.51069 24 14.6667 24C17.0939 24.0038 19.4265 23.0588 21.1667 21.3666L21.3667 21.1666Z" fill="black" style="fill:black;fill-opacity:1;"/>
</svg>
