<svg width="32" height="32" viewBox="0 0 32 32" fill="none" xmlns="http://www.w3.org/2000/svg">
<path d="M3.98934 28C3.63842 27.9996 3.302 27.86 3.05399 27.6117C2.80598 27.3635 2.66667 27.0269 2.66667 26.676V5.324C2.66911 4.97384 2.80921 4.63869 3.05669 4.39096C3.30417 4.14322 3.63918 4.00279 3.98934 4H28.0107C28.7413 4 29.3333 4.59333 29.3333 5.324V26.676C29.3309 27.0262 29.1908 27.3613 28.9433 27.609C28.6958 27.8568 28.3608 27.9972 28.0107 28H3.98934ZM26.6667 20V6.66667H5.33334V25.3333L18.6667 12L26.6667 20ZM26.6667 23.7707L18.6667 15.7707L9.10401 25.3333H26.6667V23.7707ZM10.6667 14.6667C9.95943 14.6667 9.28115 14.3857 8.78105 13.8856C8.28096 13.3855 8.00001 12.7072 8.00001 12C8.00001 11.2928 8.28096 10.6145 8.78105 10.1144C9.28115 9.61428 9.95943 9.33333 10.6667 9.33333C11.3739 9.33333 12.0522 9.61428 12.5523 10.1144C13.0524 10.6145 13.3333 11.2928 13.3333 12C13.3333 12.7072 13.0524 13.3855 12.5523 13.8856C12.0522 14.3857 11.3739 14.6667 10.6667 14.6667Z" fill="black" style="fill:black;fill-opacity:1;"/>
</svg>
