<svg width="32" height="32" viewBox="0 0 32 32" fill="none" xmlns="http://www.w3.org/2000/svg">
  <path
    d="M16 4.00004C14.9391 4.00004 13.9217 4.42147 13.1716 5.17161C12.4214 5.92176 12 6.93917 12 8.00004V16C12 17.0609 12.4214 18.0783 13.1716 18.8285C13.9217 19.5786 14.9391 20 16 20C17.0609 20 18.0783 19.5786 18.8284 18.8285C19.5786 18.0783 20 17.0609 20 16V8.00004C20 6.93917 19.5786 5.92176 18.8284 5.17161C18.0783 4.42147 17.0609 4.00004 16 4.00004ZM16 1.33337C16.8755 1.33337 17.7424 1.50581 18.5512 1.84084C19.3601 2.17588 20.095 2.66694 20.714 3.286C21.3331 3.90505 21.8242 4.63998 22.1592 5.44882C22.4942 6.25765 22.6667 7.12456 22.6667 8.00004V16C22.6667 17.7682 21.9643 19.4638 20.714 20.7141C19.4638 21.9643 17.7681 22.6667 16 22.6667C14.2319 22.6667 12.5362 21.9643 11.286 20.7141C10.0357 19.4638 9.33333 17.7682 9.33333 16V8.00004C9.33333 6.23193 10.0357 4.53624 11.286 3.286C12.5362 2.03575 14.2319 1.33337 16 1.33337ZM2.92 18.6147L5.536 18.092C6.02185 20.5086 7.32937 22.6825 9.23641 24.2443C11.1434 25.8061 13.5324 26.6595 15.9973 26.6595C18.4623 26.6595 20.8512 25.8061 22.7583 24.2443C24.6653 22.6825 25.9728 20.5086 26.4587 18.092L29.0747 18.6147C27.86 24.7267 22.4667 29.3334 15.9987 29.3334C9.53067 29.3334 4.136 24.7267 2.92 18.6147Z"
    fill="currentColor" style="fill:black;fill-opacity:1;" />
</svg>