<svg width="32" height="32" viewBox="0 0 32 32" fill="none" xmlns="http://www.w3.org/2000/svg">
  <path
    d="M21.3333 9.33337H14.6667C12.5449 9.33337 10.5101 10.1762 9.00981 11.6765C7.50952 13.1768 6.66667 15.2116 6.66667 17.3334C6.66667 19.4551 7.50952 21.4899 9.00981 22.9902C10.5101 24.4905 12.5449 25.3334 14.6667 25.3334H26.6667V28H14.6667C11.8377 28 9.12458 26.8762 7.12419 24.8758C5.12381 22.8755 4 20.1624 4 17.3334C4 14.5044 5.12381 11.7913 7.12419 9.7909C9.12458 7.79051 11.8377 6.66671 14.6667 6.66671H21.3333V1.33337L29.3333 8.00004L21.3333 14.6667V9.33337Z"
    fill="currentColor" style="fill:black;fill-opacity:1;" />
</svg>