<svg width="24" height="24" viewBox="0 0 24 24" fill="none" xmlns="http://www.w3.org/2000/svg">
<path d="M1.33333 0H22.6667C23.0203 0 23.3594 0.140476 23.6095 0.390524C23.8595 0.640573 24 0.979711 24 1.33333V22.6667C24 23.0203 23.8595 23.3594 23.6095 23.6095C23.3594 23.8595 23.0203 24 22.6667 24H1.33333C0.979711 24 0.640573 23.8595 0.390524 23.6095C0.140476 23.3594 0 23.0203 0 22.6667V1.33333C0 0.979711 0.140476 0.640573 0.390524 0.390524C0.640573 0.140476 0.979711 0 1.33333 0ZM10.6707 17.3333L20.0973 7.90533L18.2133 6.02L10.6707 13.5627L6.89867 9.79067L5.01333 11.676L10.6707 17.3333Z" fill="#336CED" style="fill:#336CED;fill:color(display-p3 0.2000 0.4235 0.9294);fill-opacity:1;"/>
</svg>
