<svg width="112" height="98" viewBox="0 0 112 98" fill="none" xmlns="http://www.w3.org/2000/svg">
<g filter="url(#filter0_d_1_268)">
<path opacity="0.4" d="M16 20C16 13.3726 21.3726 8 28 8H42C48.6274 8 54 13.3726 54 20V27C54 33.6274 48.6274 39 42 39H28C21.3726 39 16 33.6274 16 27V20Z" fill="#FF5959" style="fill:#FF5959;fill:color(display-p3 1.0000 0.3490 0.3490);fill-opacity:1;"/>
<path d="M16 30C16 23.3726 21.3726 18 28 18H84C90.6274 18 96 23.3726 96 30V66C96 72.6274 90.6274 78 84 78H28C21.3726 78 16 72.6274 16 66V30Z" fill="#FF5959" style="fill:#FF5959;fill:color(display-p3 1.0000 0.3490 0.3490);fill-opacity:1;"/>
<path d="M48 42.6667V41.3334C48 39.2116 48.8429 37.1768 50.3431 35.6765C51.8434 34.1762 53.8783 33.3334 56 33.3334C58.1217 33.3334 60.1566 34.1762 61.6569 35.6765C63.1571 37.1768 64 39.2116 64 41.3334V42.6667H66.6667C67.0203 42.6667 67.3594 42.8072 67.6095 43.0572C67.8595 43.3073 68 43.6464 68 44V60C68 60.3537 67.8595 60.6928 67.6095 60.9429C67.3594 61.1929 67.0203 61.3334 66.6667 61.3334H45.3333C44.9797 61.3334 44.6406 61.1929 44.3905 60.9429C44.1405 60.6928 44 60.3537 44 60V44C44 43.6464 44.1405 43.3073 44.3905 43.0572C44.6406 42.8072 44.9797 42.6667 45.3333 42.6667H48ZM65.3333 45.3334H46.6667V58.6667H65.3333V45.3334ZM54.6667 52.976C54.1583 52.6825 53.761 52.2295 53.5364 51.6871C53.3118 51.1448 53.2724 50.5435 53.4243 49.9765C53.5762 49.4095 53.911 48.9085 54.3767 48.5511C54.8424 48.1938 55.413 48.0001 56 48C56.587 48.0001 57.1576 48.1938 57.6233 48.5511C58.089 48.9085 58.4238 49.4095 58.5757 49.9765C58.7276 50.5435 58.6882 51.1448 58.4636 51.6871C58.239 52.2295 57.8417 52.6825 57.3333 52.976V56H54.6667V52.976ZM50.6667 42.6667H61.3333V41.3334C61.3333 39.9189 60.7714 38.5623 59.7712 37.5621C58.771 36.5619 57.4145 36 56 36C54.5855 36 53.229 36.5619 52.2288 37.5621C51.2286 38.5623 50.6667 39.9189 50.6667 41.3334V42.6667Z" fill="white" style="fill:white;fill-opacity:1;"/>
</g>
<defs>
<filter id="filter0_d_1_268" x="0" y="0" width="112" height="102" filterUnits="userSpaceOnUse" color-interpolation-filters="sRGB">
<feFlood flood-opacity="0" result="BackgroundImageFix"/>
<feColorMatrix in="SourceAlpha" type="matrix" values="0 0 0 0 0 0 0 0 0 0 0 0 0 0 0 0 0 0 127 0" result="hardAlpha"/>
<feOffset dy="8"/>
<feGaussianBlur stdDeviation="8"/>
<feComposite in2="hardAlpha" operator="out"/>
<feColorMatrix type="matrix" values="0 0 0 0 1 0 0 0 0 0.34902 0 0 0 0 0.34902 0 0 0 0.25 0"/>
<feBlend mode="normal" in2="BackgroundImageFix" result="effect1_dropShadow_1_268"/>
<feBlend mode="normal" in="SourceGraphic" in2="effect1_dropShadow_1_268" result="shape"/>
</filter>
</defs>
</svg>
