<svg width="32" height="32" viewBox="0 0 32 32" fill="none" xmlns="http://www.w3.org/2000/svg">
<path d="M16.552 6.66667H28C28.3536 6.66667 28.6928 6.80714 28.9428 7.05719C29.1929 7.30724 29.3333 7.64638 29.3333 8V26.6667C29.3333 27.0203 29.1929 27.3594 28.9428 27.6095C28.6928 27.8595 28.3536 28 28 28H3.99999C3.64637 28 3.30723 27.8595 3.05718 27.6095C2.80713 27.3594 2.66666 27.0203 2.66666 26.6667V5.33333C2.66666 4.97971 2.80713 4.64057 3.05718 4.39052C3.30723 4.14048 3.64637 4 3.99999 4H13.8853L16.552 6.66667ZM26.6667 14.6667H5.33332V25.3333H26.6667V14.6667ZM26.6667 12V9.33333H15.448L12.7813 6.66667H5.33332V12H26.6667Z" fill="black" style="currentColor"/>
</svg>
