<svg width="32" height="32" viewBox="0 0 32 32" fill="none" xmlns="http://www.w3.org/2000/svg">
<path d="M6.66665 29.3333C6.31302 29.3333 5.97389 29.1928 5.72384 28.9428C5.47379 28.6927 5.33331 28.3536 5.33331 28V3.99996C5.33331 3.64634 5.47379 3.3072 5.72384 3.05715C5.97389 2.8071 6.31302 2.66663 6.66665 2.66663H25.3333C25.6869 2.66663 26.0261 2.8071 26.2761 3.05715C26.5262 3.3072 26.6666 3.64634 26.6666 3.99996V7.99996H24V5.33329H7.99998V26.6666H24V24H26.6666V28C26.6666 28.3536 26.5262 28.6927 26.2761 28.9428C26.0261 29.1928 25.6869 29.3333 25.3333 29.3333H6.66665ZM24 21.3333V17.3333H14.6666V14.6666H24V10.6666L30.6666 16L24 21.3333Z" fill="black" style="currentColor"/>
</svg>
