<svg width="32" height="32" viewBox="0 0 32 32" fill="none" xmlns="http://www.w3.org/2000/svg">
<path d="M25.8347 16.5547L11.7027 25.976C11.6023 26.0428 11.4856 26.0811 11.3652 26.0869C11.2447 26.0927 11.125 26.0656 11.0187 26.0087C10.9123 25.9518 10.8235 25.8671 10.7615 25.7637C10.6995 25.6602 10.6667 25.5419 10.6667 25.4213V6.57868C10.6667 6.45809 10.6995 6.33977 10.7615 6.23633C10.8235 6.1329 10.9123 6.04821 11.0187 5.99129C11.125 5.93437 11.2447 5.90735 11.3652 5.91312C11.4856 5.91888 11.6023 5.9572 11.7027 6.02401L25.8347 15.4453C25.926 15.5062 26.0008 15.5887 26.0526 15.6855C26.1044 15.7822 26.1315 15.8903 26.1315 16C26.1315 16.1098 26.1044 16.2178 26.0526 16.3146C26.0008 16.4113 25.926 16.4938 25.8347 16.5547Z" fill="#BABEC7" style="currentColor"/>
</svg>
