<svg width="54" height="48" viewBox="0 0 54 48" fill="none" xmlns="http://www.w3.org/2000/svg">
<path opacity="0.4" d="M0 8.22857C0 3.68406 3.62649 0 8.1 0H17.55C22.0235 0 25.65 3.68406 25.65 8.22857V13.0286C25.65 17.5731 22.0235 21.2571 17.55 21.2571H8.1C3.62649 21.2571 0 17.5731 0 13.0286V8.22857Z" fill="#2FAC2C" style="fill:#2FAC2C;"/>
<path d="M0 15.0857C0 10.5412 3.62649 6.85715 8.1 6.85715H45.9C50.3735 6.85715 54 10.5412 54 15.0857V39.7714C54 44.3159 50.3735 48 45.9 48H8.1C3.62649 48 0 44.3159 0 39.7714V15.0857Z" fill="#2FAC2C" style="fill:#2FAC2C;"/>
<rect x="12.825" y="27.4286" width="28.35" height="4.11428" rx="2.05714" fill="white" style="fill:white;fill-opacity:1;"/>
</svg>