<svg width="213" height="24" viewBox="0 0 213 24" fill="none" xmlns="http://www.w3.org/2000/svg">
<rect y="10.5" width="3" height="3" rx="1.5" fill="#336CED" style="fill:#336CED;fill:color(display-p3 0.2000 0.4235 0.9294);fill-opacity:1;"/>
<rect x="6" y="8" width="3" height="8" rx="1.5" fill="#336CED" style="fill:#336CED;fill:color(display-p3 0.2000 0.4235 0.9294);fill-opacity:1;"/>
<rect x="12" y="5" width="3" height="14" rx="1.5" fill="#336CED" style="fill:#336CED;fill:color(display-p3 0.2000 0.4235 0.9294);fill-opacity:1;"/>
<rect x="18" y="5" width="3" height="14" rx="1.5" fill="#336CED" style="fill:#336CED;fill:color(display-p3 0.2000 0.4235 0.9294);fill-opacity:1;"/>
<rect x="24" y="7" width="3" height="10" rx="1.5" fill="#336CED" style="fill:#336CED;fill:color(display-p3 0.2000 0.4235 0.9294);fill-opacity:1;"/>
<rect x="30" y="10.5" width="3" height="3" rx="1.5" fill="#336CED" style="fill:#336CED;fill:color(display-p3 0.2000 0.4235 0.9294);fill-opacity:1;"/>
<rect x="36" y="10.5" width="3" height="3" rx="1.5" fill="#336CED" style="fill:#336CED;fill:color(display-p3 0.2000 0.4235 0.9294);fill-opacity:1;"/>
<rect x="42" y="10.5" width="3" height="3" rx="1.5" fill="#336CED" style="fill:#336CED;fill:color(display-p3 0.2000 0.4235 0.9294);fill-opacity:1;"/>
<rect x="48" y="8" width="3" height="8" rx="1.5" fill="#336CED" style="fill:#336CED;fill:color(display-p3 0.2000 0.4235 0.9294);fill-opacity:1;"/>
<rect x="54" y="5" width="3" height="14" rx="1.5" fill="#336CED" style="fill:#336CED;fill:color(display-p3 0.2000 0.4235 0.9294);fill-opacity:1;"/>
<rect x="60" y="5" width="3" height="14" rx="1.5" fill="#336CED" style="fill:#336CED;fill:color(display-p3 0.2000 0.4235 0.9294);fill-opacity:1;"/>
<rect x="66" y="7" width="3" height="10" rx="1.5" fill="#336CED" style="fill:#336CED;fill:color(display-p3 0.2000 0.4235 0.9294);fill-opacity:1;"/>
<rect x="72" y="5" width="3" height="14" rx="1.5" fill="#336CED" style="fill:#336CED;fill:color(display-p3 0.2000 0.4235 0.9294);fill-opacity:1;"/>
<rect x="78" width="3" height="24" rx="1.5" fill="#336CED" style="fill:#336CED;fill:color(display-p3 0.2000 0.4235 0.9294);fill-opacity:1;"/>
<rect x="84" width="3" height="24" rx="1.5" fill="#BABEC7" style="fill:#BABEC7;fill:color(display-p3 0.7290 0.7457 0.7792);fill-opacity:1;"/>
<rect x="90" y="3.5" width="3" height="17" rx="1.5" fill="#BABEC7" style="fill:#BABEC7;fill:color(display-p3 0.7290 0.7457 0.7792);fill-opacity:1;"/>
<rect x="96" y="10.5" width="3" height="3" rx="1.5" fill="#BABEC7" style="fill:#BABEC7;fill:color(display-p3 0.7290 0.7457 0.7792);fill-opacity:1;"/>
<rect x="102" y="8" width="3" height="8" rx="1.5" fill="#BABEC7" style="fill:#BABEC7;fill:color(display-p3 0.7290 0.7457 0.7792);fill-opacity:1;"/>
<rect x="108" y="5" width="3" height="14" rx="1.5" fill="#BABEC7" style="fill:#BABEC7;fill:color(display-p3 0.7290 0.7457 0.7792);fill-opacity:1;"/>
<rect x="114" y="5" width="3" height="14" rx="1.5" fill="#BABEC7" style="fill:#BABEC7;fill:color(display-p3 0.7290 0.7457 0.7792);fill-opacity:1;"/>
<rect x="120" y="7" width="3" height="10" rx="1.5" fill="#BABEC7" style="fill:#BABEC7;fill:color(display-p3 0.7290 0.7457 0.7792);fill-opacity:1;"/>
<rect x="126" y="10.5" width="3" height="3" rx="1.5" fill="#BABEC7" style="fill:#BABEC7;fill:color(display-p3 0.7290 0.7457 0.7792);fill-opacity:1;"/>
<rect x="132" y="8" width="3" height="8" rx="1.5" fill="#BABEC7" style="fill:#BABEC7;fill:color(display-p3 0.7290 0.7457 0.7792);fill-opacity:1;"/>
<rect x="138" y="5" width="3" height="14" rx="1.5" fill="#BABEC7" style="fill:#BABEC7;fill:color(display-p3 0.7290 0.7457 0.7792);fill-opacity:1;"/>
<rect x="144" y="5" width="3" height="14" rx="1.5" fill="#BABEC7" style="fill:#BABEC7;fill:color(display-p3 0.7290 0.7457 0.7792);fill-opacity:1;"/>
<rect x="150" y="7" width="3" height="10" rx="1.5" fill="#BABEC7" style="fill:#BABEC7;fill:color(display-p3 0.7290 0.7457 0.7792);fill-opacity:1;"/>
<rect x="156" y="5" width="3" height="14" rx="1.5" fill="#BABEC7" style="fill:#BABEC7;fill:color(display-p3 0.7290 0.7457 0.7792);fill-opacity:1;"/>
<rect x="162" width="3" height="24" rx="1.5" fill="#BABEC7" style="fill:#BABEC7;fill:color(display-p3 0.7290 0.7457 0.7792);fill-opacity:1;"/>
<rect x="168" width="3" height="24" rx="1.5" fill="#BABEC7" style="fill:#BABEC7;fill:color(display-p3 0.7290 0.7457 0.7792);fill-opacity:1;"/>
<rect x="174" y="3.5" width="3" height="17" rx="1.5" fill="#BABEC7" style="fill:#BABEC7;fill:color(display-p3 0.7290 0.7457 0.7792);fill-opacity:1;"/>
<rect x="180" y="10.5" width="3" height="3" rx="1.5" fill="#BABEC7" style="fill:#BABEC7;fill:color(display-p3 0.7290 0.7457 0.7792);fill-opacity:1;"/>
<rect x="186" y="10.5" width="3" height="3" rx="1.5" fill="#BABEC7" style="fill:#BABEC7;fill:color(display-p3 0.7290 0.7457 0.7792);fill-opacity:1;"/>
<rect x="192" y="10.5" width="3" height="3" rx="1.5" fill="#BABEC7" style="fill:#BABEC7;fill:color(display-p3 0.7290 0.7457 0.7792);fill-opacity:1;"/>
<rect x="198" y="9" width="3" height="6" rx="1.5" fill="#BABEC7" style="fill:#BABEC7;fill:color(display-p3 0.7290 0.7457 0.7792);fill-opacity:1;"/>
<rect x="204" y="5" width="3" height="14" rx="1.5" fill="#BABEC7" style="fill:#BABEC7;fill:color(display-p3 0.7290 0.7457 0.7792);fill-opacity:1;"/>
<rect x="210" y="10.5" width="3" height="3" rx="1.5" fill="#BABEC7" style="fill:#BABEC7;fill:color(display-p3 0.7290 0.7457 0.7792);fill-opacity:1;"/>
</svg>
